<mxfile host="app.diagrams.net" modified="2021-02-04T11:12:10.856Z" agent="5.0 (Windows NT 6.1; Win64; x64) AppleWebKit/537.36 (KHTML, like Gecko) Chrome/79.0.3945.88 Safari/537.36" etag="3Q2DQatSTAT03goPmaEk" version="14.2.9" type="github">
  <diagram id="jQa9sGm4R0DZDFu90RpT" name="Page-1">
    <mxGraphModel dx="1182" dy="764" grid="1" gridSize="10" guides="1" tooltips="1" connect="1" arrows="1" fold="1" page="1" pageScale="1" pageWidth="827" pageHeight="1169" math="0" shadow="0">
      <root>
        <mxCell id="0" />
        <mxCell id="1" parent="0" />
        <mxCell id="32XMmCokE1lOzzrugzDl-1" value="version" style="rounded=0;whiteSpace=wrap;html=1;" vertex="1" parent="1">
          <mxGeometry x="100" y="360" width="120" height="60" as="geometry" />
        </mxCell>
        <mxCell id="32XMmCokE1lOzzrugzDl-2" value="版本结构树" style="rounded=0;whiteSpace=wrap;html=1;" vertex="1" parent="1">
          <mxGeometry x="20" y="10" width="120" height="60" as="geometry" />
        </mxCell>
        <mxCell id="32XMmCokE1lOzzrugzDl-3" value="others" style="rounded=0;whiteSpace=wrap;html=1;" vertex="1" parent="1">
          <mxGeometry x="80" y="210" width="60" height="70" as="geometry" />
        </mxCell>
        <mxCell id="32XMmCokE1lOzzrugzDl-4" value="tools" style="rounded=0;whiteSpace=wrap;html=1;" vertex="1" parent="1">
          <mxGeometry x="100" y="540" width="120" height="60" as="geometry" />
        </mxCell>
        <mxCell id="32XMmCokE1lOzzrugzDl-5" value="MS10" style="rounded=0;whiteSpace=wrap;html=1;" vertex="1" parent="1">
          <mxGeometry x="230" y="110" width="70" height="20" as="geometry" />
        </mxCell>
        <mxCell id="32XMmCokE1lOzzrugzDl-7" value="&lt;font face=&quot;monospace&quot; color=&quot;#1a1a1a&quot;&gt;&lt;span style=&quot;font-size: 7px&quot;&gt;QOE&lt;/span&gt;&lt;/font&gt;" style="rounded=0;whiteSpace=wrap;html=1;" vertex="1" parent="1">
          <mxGeometry x="230" y="210" width="70" height="20" as="geometry" />
        </mxCell>
        <mxCell id="32XMmCokE1lOzzrugzDl-10" value="&lt;font color=&quot;#1a1a1a&quot; face=&quot;monospace&quot;&gt;&lt;span style=&quot;font-size: 7px&quot;&gt;TelecomAR&lt;/span&gt;&lt;/font&gt;" style="rounded=0;whiteSpace=wrap;html=1;" vertex="1" parent="1">
          <mxGeometry x="230" y="260" width="70" height="20" as="geometry" />
        </mxCell>
        <mxCell id="32XMmCokE1lOzzrugzDl-14" value="" style="endArrow=classic;html=1;entryX=0;entryY=0.75;entryDx=0;entryDy=0;" edge="1" parent="1" target="32XMmCokE1lOzzrugzDl-5">
          <mxGeometry width="50" height="50" relative="1" as="geometry">
            <mxPoint x="120" y="210" as="sourcePoint" />
            <mxPoint x="170" y="160" as="targetPoint" />
          </mxGeometry>
        </mxCell>
        <mxCell id="32XMmCokE1lOzzrugzDl-15" value="" style="endArrow=classic;html=1;entryX=0;entryY=0.75;entryDx=0;entryDy=0;exitX=1;exitY=0.25;exitDx=0;exitDy=0;" edge="1" parent="1" source="32XMmCokE1lOzzrugzDl-3" target="32XMmCokE1lOzzrugzDl-7">
          <mxGeometry width="50" height="50" relative="1" as="geometry">
            <mxPoint x="140" y="220" as="sourcePoint" />
            <mxPoint x="190" y="180" as="targetPoint" />
          </mxGeometry>
        </mxCell>
        <mxCell id="32XMmCokE1lOzzrugzDl-16" value="" style="endArrow=classic;html=1;exitX=1;exitY=1;exitDx=0;exitDy=0;entryX=0;entryY=1;entryDx=0;entryDy=0;" edge="1" parent="1" source="32XMmCokE1lOzzrugzDl-3" target="32XMmCokE1lOzzrugzDl-10">
          <mxGeometry width="50" height="50" relative="1" as="geometry">
            <mxPoint x="180" y="260" as="sourcePoint" />
            <mxPoint x="230" y="210" as="targetPoint" />
          </mxGeometry>
        </mxCell>
      </root>
    </mxGraphModel>
  </diagram>
</mxfile>
